<svg width="14" height="7" viewBox="0 0 14 7" fill="none" xmlns="http://www.w3.org/2000/svg">
<rect width="14" height="7" fill="#F5F5F5"/>
<rect x="-518" y="-287" width="557" height="666" rx="8" fill="white"/>
<g clip-path="url(#clip0_12_2)">
<path fill-rule="evenodd" clip-rule="evenodd" d="M0.646039 0.145978C0.692485 0.0994147 0.747661 0.0624717 0.808406 0.0372653C0.869151 0.0120589 0.934272 -0.000915527 1.00004 -0.000915527C1.06581 -0.000915527 1.13093 0.0120589 1.19167 0.0372653C1.25242 0.0624717 1.30759 0.0994147 1.35404 0.145978L7.00004 5.79298L12.646 0.145978C12.6925 0.09949 12.7477 0.0626137 12.8085 0.0374546C12.8692 0.0122955 12.9343 -0.000653744 13 -0.000653744C13.0658 -0.000653744 13.1309 0.0122955 13.1916 0.0374546C13.2524 0.0626137 13.3076 0.09949 13.354 0.145978C13.4005 0.192466 13.4374 0.247655 13.4626 0.308394C13.4877 0.369134 13.5007 0.434234 13.5007 0.499978C13.5007 0.565722 13.4877 0.630822 13.4626 0.691562C13.4374 0.752301 13.4005 0.80749 13.354 0.853978L7.35404 6.85398C7.30759 6.90054 7.25242 6.93748 7.19167 6.96269C7.13093 6.9879 7.06581 7.00087 7.00004 7.00087C6.93427 7.00087 6.86915 6.9879 6.80841 6.96269C6.74766 6.93748 6.69248 6.90054 6.64604 6.85398L0.646039 0.853978C0.599476 0.807532 0.562533 0.752357 0.537327 0.691612C0.51212 0.630867 0.499146 0.565745 0.499146 0.499978C0.499146 0.434211 0.51212 0.36909 0.537327 0.308344C0.562533 0.247599 0.599476 0.192424 0.646039 0.145978Z" fill="#212529"/>
<rect x="-235" y="-23.5" width="257.5" height="54" rx="7.5" stroke="#E5E5E5"/>
</g>
<defs>
<clipPath id="clip0_12_2">
<rect width="557" height="478" fill="white" transform="translate(-518 -211)"/>
</clipPath>
</defs>
</svg>
