<svg width="8" height="8" viewBox="0 0 8 8" fill="none" xmlns="http://www.w3.org/2000/svg">
<rect width="8" height="8" fill="#F5F5F5"/>
<rect x="-20" y="-22" width="557" height="666" rx="8" fill="white"/>
<path d="M0.646039 0.645978C0.692485 0.599415 0.74766 0.562472 0.808405 0.537265C0.869151 0.512059 0.934272 0.499084 1.00004 0.499084C1.06581 0.499084 1.13093 0.512059 1.19167 0.537265C1.25242 0.562472 1.30759 0.599415 1.35404 0.645978L4.00004 3.29298L6.64604 0.645978C6.69253 0.59949 6.74772 0.562614 6.80846 0.537455C6.86919 0.512296 6.9343 0.499346 7.00004 0.499346C7.06578 0.499346 7.13088 0.512296 7.19162 0.537455C7.25236 0.562614 7.30755 0.59949 7.35404 0.645978C7.40053 0.692466 7.4374 0.747655 7.46256 0.808394C7.48772 0.869134 7.50067 0.934234 7.50067 0.999978C7.50067 1.06572 7.48772 1.13082 7.46256 1.19156C7.4374 1.2523 7.40053 1.30749 7.35404 1.35398L4.70704 3.99998L7.35404 6.64598C7.40053 6.69247 7.4374 6.74766 7.46256 6.80839C7.48772 6.86913 7.50067 6.93423 7.50067 6.99998C7.50067 7.06572 7.48772 7.13082 7.46256 7.19156C7.4374 7.2523 7.40053 7.30749 7.35404 7.35398C7.30755 7.40047 7.25236 7.43734 7.19162 7.4625C7.13088 7.48766 7.06578 7.50061 7.00004 7.50061C6.9343 7.50061 6.86919 7.48766 6.80846 7.4625C6.74772 7.43734 6.69253 7.40047 6.64604 7.35398L4.00004 4.70698L1.35404 7.35398C1.30755 7.40047 1.25236 7.43734 1.19162 7.4625C1.13088 7.48766 1.06578 7.50061 1.00004 7.50061C0.934295 7.50061 0.869195 7.48766 0.808455 7.4625C0.747716 7.43734 0.692527 7.40047 0.646039 7.35398C0.599551 7.30749 0.562675 7.2523 0.537516 7.19156C0.512357 7.13082 0.499407 7.06572 0.499407 6.99998C0.499407 6.93423 0.512357 6.86913 0.537516 6.80839C0.562675 6.74766 0.599551 6.69247 0.646039 6.64598L3.29304 3.99998L0.646039 1.35398C0.599476 1.30753 0.562533 1.25236 0.537326 1.19161C0.51212 1.13087 0.499146 1.06575 0.499146 0.999978C0.499146 0.934211 0.51212 0.86909 0.537326 0.808344C0.562533 0.747599 0.599476 0.692424 0.646039 0.645978Z" fill="#212529"/>
</svg>
