<svg width="12" height="20" viewBox="0 0 12 20" fill="none" xmlns="http://www.w3.org/2000/svg">
<rect width="12" height="20" fill="#F5F5F5"/>
<rect width="1280" height="720" transform="translate(-772 -611)" fill="white"/>
<path fill-rule="evenodd" clip-rule="evenodd" d="M0.968997 0.468998C1.03867 0.399153 1.12143 0.343739 1.21255 0.305929C1.30366 0.26812 1.40135 0.248657 1.5 0.248657C1.59865 0.248657 1.69633 0.26812 1.78745 0.305929C1.87857 0.343739 1.96133 0.399153 2.031 0.468998L11.031 9.469C11.1008 9.53867 11.1563 9.62143 11.1941 9.71255C11.2319 9.80367 11.2513 9.90135 11.2513 10C11.2513 10.0986 11.2319 10.1963 11.1941 10.2874C11.1563 10.3786 11.1008 10.4613 11.031 10.531L2.031 19.531C1.89017 19.6718 1.69916 19.7509 1.5 19.7509C1.30083 19.7509 1.10983 19.6718 0.968997 19.531C0.828168 19.3902 0.74905 19.1992 0.74905 19C0.74905 18.8008 0.828168 18.6098 0.968997 18.469L9.4395 10L0.968997 1.531C0.899153 1.46133 0.843738 1.37857 0.805928 1.28745C0.768119 1.19633 0.748657 1.09865 0.748657 0.999998C0.748657 0.901347 0.768119 0.803665 0.805928 0.712548C0.843738 0.62143 0.899153 0.538667 0.968997 0.468998Z" fill="#222222"/>
</svg>
